<?xml version="1.0" encoding="UTF-8"?>
<!DOCTYPE svg PUBLIC "-//W3C//DTD SVG 1.1//EN" "http://www.w3.org/Graphics/SVG/1.1/DTD/svg11.dtd">
<!-- Creator: CorelDRAW X8 -->
<svg xmlns="http://www.w3.org/2000/svg" xml:space="preserve" width="120mm" height="90mm" version="1.1" style="shape-rendering:geometricPrecision; text-rendering:geometricPrecision; image-rendering:optimizeQuality; fill-rule:evenodd; clip-rule:evenodd"
viewBox="0 0 12000 9000"
 xmlns:xlink="http://www.w3.org/1999/xlink">
 <defs>
  <style type="text/css">
   <![CDATA[
    .fil0 {fill:#FEFEFE}
   ]]>
  </style>
 </defs>
 <g id="Camada_x0020_1">
  <metadata id="CorelCorpID_0Corel-Layer"/>
  <path id="commerce-and-shopping.svg" class="fil0" d="M8597 3166c-116,-133 -281,-205 -465,-205l-4440 0 -45 -335c-48,-361 -299,-644 -572,-644l-326 0c-101,0 -183,82 -183,183 0,101 82,182 183,182l326 0c59,0 183,124 210,327l523 3924c23,173 112,335 250,456 103,90 224,149 351,174 -51,95 -81,204 -81,320 0,371 302,672 672,672 371,0 672,-301 672,-672 0,-110 -26,-214 -74,-306l958 0c-48,92 -74,196 -74,306 0,371 301,672 672,672 370,0 672,-301 672,-672 0,-110 -27,-214 -74,-306l478 0c101,0 183,-82 183,-183 0,-101 -82,-183 -183,-183l-3686 0c-179,0 -350,-150 -373,-327l-39 -286 1423 0c0,0 0,0 0,0 0,0 0,0 0,0l1174 0c0,0 0,0 1,0 0,0 0,0 0,0l1011 0c174,0 347,-67 485,-188 138,-121 227,-283 250,-456l262 -1966c25,-182 -26,-355 -141,-487l0 0zm-3290 4382c0,169 -138,307 -307,307 -169,0 -306,-138 -306,-307 0,-169 137,-306 306,-306 169,0 307,137 307,306zm2153 0c0,169 -137,307 -306,307 -169,0 -307,-138 -307,-307 0,-169 138,-306 307,-306 169,0 306,137 306,306zm862 -4142c45,52 64,122 54,198l-110 825 -1243 0 73 -1103 1036 0c77,0 144,29 190,80zm-2596 2491l-73 -1103 979 0 -74 1103 -832 0zm-98 -1468l-73 -1103 1175 0 -74 1103 -1028 0zm-440 -1103l74 1103 -1374 0 -147 -1103 1447 0zm-1251 1468l1349 0 74 1103 -1276 0 -147 -1103zm3804 1103l-816 0 73 -1103 1219 0 -103 777c-24,177 -194,326 -373,326l0 0zm0 0z"/>
 </g>
</svg>
