<?xml version="1.0" encoding="UTF-8"?>
<!DOCTYPE svg PUBLIC "-//W3C//DTD SVG 1.1//EN" "http://www.w3.org/Graphics/SVG/1.1/DTD/svg11.dtd">
<!-- Creator: CorelDRAW X8 -->
<svg xmlns="http://www.w3.org/2000/svg" xml:space="preserve" width="120mm" height="90mm" version="1.1" style="shape-rendering:geometricPrecision; text-rendering:geometricPrecision; image-rendering:optimizeQuality; fill-rule:evenodd; clip-rule:evenodd"
viewBox="0 0 12000 9000"
 xmlns:xlink="http://www.w3.org/1999/xlink"
 data-name="Layer 1">
 <defs>
  <style type="text/css">
   <![CDATA[
    .fil0 {fill:#FEFEFE}
   ]]>
  </style>
 </defs>
 <g id="Camada_x0020_1">
  <metadata id="CorelCorpID_0Corel-Layer"/>
  <g id="feminine.svg">
   <path class="fil0" d="M6255 2281c143,-144 252,-303 305,-450 44,-121 43,-221 -2,-266 -23,-23 -60,-34 -105,-34 -146,0 -389,116 -611,338 -143,143 -251,303 -305,449 -44,122 -43,221 2,266 97,98 424,-11 716,-303l0 0z"/>
   <path class="fil0" d="M5644 2789c-35,0 -70,-4 -104,-13l0 775 1047 0 0 -1399c-63,88 -134,172 -211,250 -249,248 -525,388 -732,388l0 -1z"/>
   <polygon class="fil0" points="5333,3721 6794,3721 6794,4999 5333,4999 "/>
   <path class="fil0" d="M5151 7092c0,155 125,281 280,282l1266 0c155,-1 280,-127 280,-282l0 -1922 -1826 0 0 1922zm1813 -1123c0,-47 39,-85 86,-85 47,0 85,38 85,85l0 1195c0,47 -38,85 -85,85 -47,0 -86,-38 -86,-85l0 -1195z"/>
  </g>
 </g>
</svg>
