<?xml version="1.0" encoding="UTF-8"?>
<!DOCTYPE svg PUBLIC "-//W3C//DTD SVG 1.1//EN" "http://www.w3.org/Graphics/SVG/1.1/DTD/svg11.dtd">
<!-- Creator: CorelDRAW X8 -->
<svg xmlns="http://www.w3.org/2000/svg" xml:space="preserve" width="120mm" height="90mm" version="1.1" style="shape-rendering:geometricPrecision; text-rendering:geometricPrecision; image-rendering:optimizeQuality; fill-rule:evenodd; clip-rule:evenodd"
viewBox="0 0 12000 9000"
 xmlns:xlink="http://www.w3.org/1999/xlink">
 <defs>
  <style type="text/css">
   <![CDATA[
    .fil0 {fill:#FEFEFE}
   ]]>
  </style>
 </defs>
 <g id="Camada_x0020_1">
  <metadata id="CorelCorpID_0Corel-Layer"/>
  <g id="instagram.svg">
   <path class="fil0" d="M6220 4614c0,151 -122,273 -273,273 -151,0 -273,-122 -273,-273 0,-151 122,-273 273,-273 151,0 273,122 273,273zm0 0z"/>
   <path class="fil0" d="M6586 4131c-13,-36 -34,-68 -62,-94 -26,-28 -58,-49 -94,-62 -29,-11 -72,-24 -152,-28 -86,-4 -112,-5 -331,-5 -219,0 -245,1 -331,5 -80,4 -123,17 -152,28 -36,13 -68,34 -94,62 -27,26 -48,58 -62,94 -11,29 -24,72 -28,152 -4,86 -5,112 -5,331 0,219 1,245 5,331 4,80 17,123 28,152 14,36 35,68 62,94 26,27 58,48 94,61 29,12 72,25 152,29 86,4 112,4 331,4 219,0 245,0 331,-4 80,-4 123,-17 152,-29 72,-27 128,-84 156,-155 11,-29 24,-72 28,-152 4,-86 5,-112 5,-331 0,-219 -1,-245 -5,-331 -4,-80 -17,-123 -28,-152l0 0zm-639 904c-232,0 -421,-189 -421,-421 0,-232 189,-421 421,-421 232,0 421,189 421,421 0,232 -189,421 -421,421zm437 -760c-54,0 -98,-44 -98,-98 0,-55 44,-99 98,-99 55,0 99,44 99,99 0,54 -44,98 -99,98zm0 0z"/>
   <path class="fil0" d="M5947 3187c-788,0 -1427,639 -1427,1427 0,788 639,1427 1427,1427 788,0 1427,-639 1427,-1427 0,-788 -639,-1427 -1427,-1427zm814 1765c-4,87 -17,146 -38,198 -42,111 -129,198 -239,240 -52,20 -112,34 -199,38 -87,4 -115,5 -338,5 -222,0 -250,-1 -338,-5 -87,-4 -146,-18 -198,-38 -55,-21 -105,-53 -146,-94 -41,-41 -73,-91 -94,-146 -20,-52 -34,-111 -38,-198 -4,-88 -5,-116 -5,-338 0,-223 1,-251 5,-338 4,-87 18,-147 38,-199 20,-54 53,-104 94,-145 41,-42 91,-74 145,-94 53,-21 112,-34 199,-38 88,-4 116,-5 338,-5 223,0 250,1 338,5 87,4 147,17 199,38 54,20 104,52 145,94 41,41 74,91 94,145 21,52 34,112 38,199 4,87 5,115 5,338 0,222 -1,250 -5,338zm0 0z"/>
  </g>
 </g>
</svg>
